<?xml version="1.0" encoding="UTF-8"?>
<svg xmlns="http://www.w3.org/2000/svg" version="1.1" viewBox="2724.21 2650.57 246.22 246.22">
  <path d="M2743.96,2730.17c.67-.84,1.34-1.68,2.01-2.52.67-.84,1.35-1.76,2.02-2.77,8.22-10.24,13.34-17.37,15.35-21.4.67-1.17,1.35-2.26,2.02-3.27.67-1.01,1.34-1.85,2.01-2.52,2.85-2.68,7.97-3.1,15.36-1.26,6.38,0,12.17.17,17.37.51,5.2.33,9.9.84,14.1,1.51,1.17,0,2.35.33,3.52,1,2.69,2.19,3.11,5.12,1.26,8.82-9.23,12.58-17.29,21.48-24.17,26.68-11.07,5.37-20.73,6.97-28.95,4.78-4.87-1.67-9.15-3.27-12.84-4.78s-6.71-3.1-9.06-4.78Z M2874.4,2720.55c-2.42.32-4.55,1.26-6.41,2.54-.14-.07-.29-.16-.42-.22-.26.38-.52.75-.79,1.12-2.1,1.72-3.8,3.86-5.15,5.97-5.94,5.61-13.27,8.79-22.01,9.53-3.69.17-12.92-.59-27.69-2.26.34-1.85.84-3.78,1.51-5.79,3.36-8.4,8.48-13.68,15.36-15.86,3.02-1.01,6.71-3.02,11.08-6.05,1.34-.84,2.43-1.59,3.27-2.26,1.01-.67,1.84-1.09,2.52-1.26l1.76-1.76c5.03-5.04,7.47-8.65,7.3-10.83-.34-2.18-3.36-6.12-9.06-11.83v-2.27c-.84-.67-1.68-1.17-2.52-1.51-.84-.5-1.6-.92-2.27-1.26-3.52-1.34-6.71-.41-9.56,2.77-.51.34-1.01.76-1.51,1.26l-1.51,1.51c-8.9,7.39-20.06,9.65-33.49,6.8-.33-.17-.75-.25-1.26-.25s-.92-.09-1.26-.25c-11.24-2.69-19.3-7.3-24.16-13.85-1.01-1.17-2.27-1.76-3.78-1.76-2.35,0-3.52,1.43-3.52,4.28-.17.5-.42,1.09-.76,1.76-.33.67-.67,1.43-1.01,2.27-1.17,4.53-2.09,7.13-2.77,7.8-2.35,3.86-4.53,7.3-6.54,10.32-2.01,2.86-3.69,5.29-5.04,7.3-16.28,24.84-32.64,43.22-49.09,55.14-.17,0-.75.16-1.76.5-.17.67-.34,1.17-.5,1.51-.17.34-.25.5-.25.5,1.51,1.18,3.18,1.93,5.03,2.27,0,0,.5-.08,1.51-.25,1.01-.34,2.43-.76,4.28-1.26,6.38-1.85,10.91-5.37,13.59-10.57.84-1.35,1.85-2.61,3.03-3.78,1.17-1.34,2.6-2.6,4.28-3.78,2.85-2.18,5.11-3.86,6.79-5.03,1.68-1.18,2.6-1.85,2.77-2.02.51.34,1.01.76,1.51,1.26.51.34.93.67,1.26,1.01,6.38,4.87,8.64,10.57,6.8,17.12,0,7.22-.25,13.68-.76,19.38-.33,5.54-.92,10.41-1.76,14.61v2.76c0,1.01-.08,2.02-.25,3.03-.17,4.36-1.09,10.15-2.77,17.37-1.51,7.05-3.69,15.44-6.55,25.17-2.68,10.57-7.46,21.82-14.35,33.74-.33.67-.83,1.51-1.51,2.51-.67,1.18-1.42,2.44-2.26,3.78-1.68,2.18-2.94,4.2-3.78,6.04,0,.34-.08.59-.25.76-.84,3.52.34,5.45,3.53,5.79,4.36.5,8.14-2.52,11.32-9.07.84-2.18,2.1-4.78,3.78-7.8,1.68-2.85,3.61-6.13,5.79-9.82,7.22-11.58,11.33-21.06,12.34-28.45.16-4.86,2.6-6.46,7.3-4.78h14.35c2.68-.34,5.62-.59,8.81-.75,3.19-.17,6.63-.34,10.32-.51,16.95-1.01,30.13-1.76,39.52-2.26,9.4-.68,14.94-1.09,16.62-1.26,7.38,0,12.34.75,14.85,2.26,2.19,1.35,3.36,4.62,3.53,9.82.17,1.51.33,2.94.5,4.28.17,1.18.34,2.18.5,3.02v9.57c-.16,2.85-2.68,4.45-7.55,4.78h-16.86l-.76.76c-.34.5-.76,1.17-1.26,2.01-.33.84-.5,1.6-.5,2.27s.2,1.33.59,2.05c.02.27.09.58.22.94,2.68,7.36,12.21,17.4,16.96,21.38,6.93,5.81,13.75,8.12,18.48,3.81,1.19-1.09,2.13-2.52,2.82-4.14,1.47-2.11,2.21-5.34,2.21-9.69v-4.53c0-1.68.09-3.45.26-5.29.33-7.39.5-13.68.5-18.88s-.25-9.49-.76-12.34c0-2.68-.08-5.54-.25-8.56,0-3.02-.08-6.21-.25-9.56-.67-13.77-1.17-24.34-1.51-31.73-.33-7.55-.5-11.91-.5-13.09,0-7.05,2.51-14.35,7.55-21.9,1.17-1.34,2.1-2.43,2.77-3.27.84-1.01,1.51-1.85,2.01-2.52,1.26-1.45,2.29-2.8,3.1-4.06,2.04-1.81,3.23-5.06,3.23-11.21,0-7.7-9.41-16.25-18.88-14.99Z M2821.5,2747.03h25.42c.68,0,1.43-.08,2.27-.25,6.04-.84,9.73.09,11.08,2.77.17.17.25.34.25.51.17.16.33.33.5.5,2.86,4.87,2.6,13.34-.75,25.43l-5.04,2.51h-21.65c-9.06-1-14.6-2.01-16.61-3.02-1.35-1-2.1-3.86-2.27-8.56,0-2.01-.08-3.86-.25-5.54,0-1.84-.09-3.44-.25-4.78-.17-.5-.34-1.01-.51-1.51v-1.51c-.33-4.36,2.27-6.55,7.81-6.55Z M2800.85,2772.46c-.33,1.01-.58,1.68-.75,2.02-1.18,2.68-4.53,4.02-10.07,4.02-.5,0-1.68.17-3.53.51-1.67.16-4.11.42-7.3.75-3.19.34-5.79.67-7.8,1.01-1.85.17-2.94.25-3.27.25-.51,0-1.01-.08-1.51-.25-1.18-.84-2.02-1.43-2.52-1.76-.5-.34-.76-.51-.76-.51-2.18-2.18-3.02-6.46-2.51-12.84,1-7.88,3.44-12.5,7.3-13.84,1.84-1.34,5.03-2.1,9.56-2.27,10.74-2.35,17.54-2.52,20.4-.5,2.68,2.18,4.02,8.73,4.02,19.64-.5,1.51-.92,2.76-1.26,3.77Z M2861.02,2818.03c-1.34,1.84-4.44,3.27-9.31,4.28-1.68.33-3.19.67-4.53,1.01-1.35.33-2.61.67-3.78,1h-9.82c-1.17-.17-2.18-.25-3.02-.25-.67,0-1.34-.08-2.01-.25-8.23-1.01-12.93-2.6-14.1-4.78-1.18-2.19-1.26-8.4-.25-18.63v-12.34l2.26-2.52c2.18-.33,4.87-.58,8.06-.75,3.36-.17,7.22-.09,11.58.25,2.68.17,5.03.33,7.05.5h5.03c4.87,1.01,8.23,2.35,10.07,4.03,1.51,1.51,3.02,5.87,4.53,13.09,0,8.06-.58,13.18-1.76,15.36Z M2799.6,2800.41c-.17.67-.26,1.42-.26,2.26s-.08,1.85-.25,3.02c-1,9.07-2.35,14.44-4.03,16.11-2.85,2.86-10.15,3.7-21.9,2.52h-2.26c-.84,0-1.68.09-2.52.25-7.55.84-13.26.76-17.12-.25,1.34-3.02,2.18-6.96,2.52-11.83.16-.67.33-1.43.5-2.27.34-1,.67-2.18,1.01-3.52,1.68-6.71,4.36-11.25,8.05-13.59,10.74-5.38,21.23-7.05,31.47-5.04.51,0,.93.08,1.26.25,2.35,1.01,3.53,2.6,3.53,4.79v7.3Z"/>
</svg>
