<?xml version="1.0" encoding="UTF-8"?>
<svg id="_レイヤー_1" data-name="レイヤー_1" xmlns="http://www.w3.org/2000/svg" version="1.1" viewBox="0 0 5600 4000">
  <!-- Generator: Adobe Illustrator 30.3.0, SVG Export Plug-In . SVG Version: 2.1.3 Build 182)  -->
  <path d="M3276.79,2028.16c0-21.37-6.71-36.5-18.77-45.41-9.39-6.82-22.47-10.38-37.22-10.38-19.11,0-32.86,9.49-40.57,28.19v-22.55h-57.66v3.26h24.14v122.86h-24.14v3.26h81.13v-3.26h-23.47v-81.91c0-11.87,3.36-23.14,10.06-32.34,6.71-9.5,15.76-14.25,27.49-14.25,17.1,0,25.48,9.5,25.48,41.55v86.95h-23.47v3.26h81.14v-3.26h-24.14v-75.97Z"/>
  <path d="M3020.28,1972.37c-34.87,0-74.1,30.86-74.1,70.33s37.89,70.33,74.1,70.33c14.41,0,29.16-5.04,41.57-13.35,18.77-12.76,32.18-33.24,32.18-56.98,0-39.77-37.55-70.33-73.75-70.33ZM3055.81,2070c0,5.05-2.34,19.89-6.37,26.41-5.36,8.91-14.41,13.36-29.16,13.36-25.15,0-33.2-11.87-35.54-36.8-.67-6.83-1.01-13.95-1.01-20.77,0-12.17,0-24.34.67-36.51.34-7.71,2.68-26.41,13.75-34.42,6.37-4.45,15.76-5.64,21.79-5.64,12.74,0,21.79,2.67,28.16,10.98,3.36,4.45,6.71,13.06,7.71,27.3.67,9.5.67,23.45.67,28.49l-.67,27.6Z"/>
  <polygon points="2899.51 1888.98 2841.85 1888.98 2841.85 1892.24 2865.99 1892.24 2865.99 2104.13 2841.85 2104.13 2841.85 2107.39 2923.65 2107.39 2923.65 2104.13 2899.51 2104.13 2899.51 1888.98"/>
  <path d="M2806.49,2106.5c-6.37,0-8.38-4.74-8.38-16.61v-56.09c0-37.99-21.12-61.43-56.32-61.43-25.48,0-44.26,13.35-44.26,25.52,0,6.82,7.38,9.2,17.77,9.2s15.76-3.56,15.76-9.79l-1.01-10.98c0-6.83,2.69-10.69,13.41-10.69,6.71,0,12.74,1.49,16.77,6.23,4.02,4.75,5.7,12.76,5.7,27.31,0,8.01-1.68,13.05-4.03,17.5-4.35,8.31-12.74,14.84-34.19,19.59-31.85,7.12-47.28,13.36-47.28,33.24s22.47,33.53,52.31,33.53c18.44,0,27.15-5.34,36.54-16.32,5.7,8.61,15.76,13.95,30.84,13.95,10.73,0,16.43-1.78,22.13-11.58l-3.69-1.48c-2.68,4.45-5.69,8.9-12.07,8.9ZM2736.76,2108.88c-15.76,0-21.79-6.53-21.79-28.79,0-20.77,4.36-24.63,25.48-32.94,11.06-4.45,19.44-9.79,24.14-17.21v48.67c0,5.04.67,9.79,2.34,14.54-7.04,9.5-15.08,15.73-30.17,15.73Z"/>
  <path d="M2633.62,2041.22c-14.42-7.72-27.83-12.47-41.58-20.18-12.74-6.24-20.11-13.95-20.11-24.93,0-13.65,12.4-20.48,27.16-20.48,18.43,0,33.52,10.98,37.88,33.54h2.68v-31.16h-2.68c-1.68,1.48-2.68,1.78-5.36,1.78-6.71,0-17.1-7.42-33.2-7.42-11.39,0-23.13,3.56-31.85,10.98-8.71,7.42-13.07,16.62-13.07,28.19,0,13.95,5.36,24.63,16.09,31.46,11.07,6.82,24.48,12.46,40.23,18.99,15.76,6.53,23.81,13.35,23.81,23.44,0,12.76-11.4,24.34-35.54,24.34s-44.93-15.73-51.63-45.41h-2.68v43.03h2.68c1.34-2.37,3.69-3.56,7.37-3.56,2.35,0,7.72,1.49,17.1,4.45,9.73,3.27,18.44,4.75,25.82,4.75,14.41,0,29.17-4.15,40.57-12.76,11.73-8.6,17.43-20.18,17.43-31.16,0-13.35-7.38-20.47-21.12-27.89Z"/>
  <polygon points="2455.85 1888.98 2398.19 1888.98 2398.19 1892.24 2422.33 1892.24 2422.33 2104.13 2398.19 2104.13 2398.19 2107.39 2479.99 2107.39 2479.99 2104.13 2455.85 2104.13 2455.85 1888.98"/>
  <path d="M2327.97,1926.37c12.07,0,21.79-8.61,21.79-19.29s-9.72-19.29-21.79-19.29-21.79,8.9-21.79,19.29,9.72,19.29,21.79,19.29Z"/>
  <polygon points="2346.75 1978 2289.08 1978 2289.08 1981.27 2313.22 1981.27 2313.22 2104.13 2289.08 2104.13 2289.08 2107.39 2370.89 2107.39 2370.89 2104.13 2346.75 2104.13 2346.75 1978"/>
  <path d="M2254.81,2106.5c-6.37,0-8.38-4.74-8.38-16.61v-56.09c0-37.99-21.12-61.43-56.32-61.43-25.48,0-44.26,13.35-44.26,25.52,0,6.82,7.38,9.2,17.77,9.2s15.76-3.56,15.76-9.79l-1.01-10.98c0-6.83,2.68-10.69,13.41-10.69,6.71,0,12.74,1.49,16.77,6.23,4.02,4.75,5.7,12.76,5.7,27.31,0,8.01-1.68,13.05-4.03,17.5-4.36,8.31-12.74,14.84-34.2,19.59-31.85,7.12-47.27,13.36-47.27,33.24s22.47,33.53,52.3,33.53c18.44,0,27.16-5.34,36.55-16.32,5.7,8.61,15.76,13.95,30.84,13.95,10.73,0,16.43-1.78,22.13-11.58l-3.69-1.48c-2.68,4.45-5.7,8.9-12.07,8.9ZM2185.08,2108.88c-15.76,0-21.8-6.53-21.8-28.79,0-20.77,4.36-24.63,25.48-32.94,11.07-4.45,19.45-9.79,24.14-17.21v48.67c0,5.04.67,9.79,2.35,14.54-7.04,9.5-15.09,15.73-30.17,15.73Z"/>
  <path d="M2090.22,2028.16c0-21.37-6.7-36.5-18.77-45.41-9.39-6.82-22.47-10.38-37.22-10.38-19.11,0-32.85,9.49-40.56,28.19v-22.55h-57.67v3.26h24.14v122.86h-24.14v3.26h81.13v-3.26h-23.46v-81.91c0-11.87,3.35-23.14,10.05-32.34,6.71-9.5,15.76-14.25,27.5-14.25,17.09,0,25.48,9.5,25.48,41.55v86.95h-23.47v3.26h81.13v-3.26h-24.14v-75.97Z"/>
  <path d="M3663,1940.55h-33.8v138.72h-44.01v2.52c20.72,4.05,35.18,13.44,42.86,25.74l1.82-1.04h33.13v-165.94Z"/>
  <path d="M3619.3,2018.48v-3.53h-67.69v-33.57h67.69v-3.53h-67.69v-33.56h67.69v-3.53h-74.69c7.11-.99,16.98-3.62,26.85-10.37,12.48-7.55,15.21-17.45,15.81-21.42h.16v-1.6c0-.11,0-.17,0-.17h-70.33c14.83-9.24,22.2-21.2,22.2-21.2h-64.92v1.77h24.91c-.99,2.76-4.14,8.75-14.15,17.82-14.24,12.91-37.26,19.59-37.26,19.59h7.95s24.84,0,50.5-12.47c2.77-1.13,5.36-2.39,7.78-3.74h36.46c-.21,2.49-1.9,7.61-10.5,15.23-10.62,9.41-27.29,15-32.37,16.56h-98.62v.55h-3.45v152.39c-6.15,3.82-14.23,7.31-24.81,9.88l2.03,3.95c10.52-2.84,56.58-18.33,56.58-33.31v-55.74h179.86ZM3517.8,2014.95h-78.36v-33.57h78.36v33.57ZM3517.8,1977.85h-78.36v-33.56h78.36v33.56Z"/>
</svg>