<?xml version="1.0" encoding="UTF-8"?>
<svg id="_レイヤー_1" data-name="レイヤー_1" xmlns="http://www.w3.org/2000/svg" version="1.1" viewBox="0 0 5600 4000">
  <!-- Generator: Adobe Illustrator 30.3.0, SVG Export Plug-In . SVG Version: 2.1.3 Build 182)  -->
  <path d="M2879.65,2119.77c5.4-5.24,9.84-12.88,13.33-22.91.16-.37.32-.73.47-1.11.03-.07.05-.14.07-.21.19-.4.33-.79.41-1.16,2.65-7.88,2.27-14.47-3.06-17.32-6.68-3.58-18.47.26-21.95,9s3.21,18.17,6.1,21.67c.25.31.48.79.72,1.33-1.42,1.83-2.88,3.64-4.4,5.42-3.18,3.69-7.72,8.23-13.59,13.6-5.87,5.37-13.09,11.66-21.65,18.88-1.18.84-2.77,2.01-4.78,3.52-2.02,1.34-4.37,2.94-7.05,4.79-5.21,3.69-9.82,6.96-13.85,9.81-3.86,2.69-7.13,4.95-9.82,6.8-18.34,12.08-34.85,19.85-49.54,23.36-2.91-4.56-7.96-10.32-15.04-10.65-9.4-.44-17.77,8.71-17.27,16.27.17,2.72,1.47,4.84,3.59,6.42-.01.03,0,.08-.03.1,5.54,5.37,10.66,8.39,15.36,9.06,3.69.5,9.73-1.34,18.12-5.54,2.18-1.34,4.53-2.68,7.05-4.03,2.52-1.34,5.2-2.85,8.06-4.53,12.92-7.05,23.41-12.92,31.46-17.62,8.23-4.7,14.1-8.22,17.63-10.57,18.46-10.41,38.35-28.54,59.66-54.38Z"/>
  <path d="M2747.99,2096.1c5.7,3.03,12.58,6.21,20.64,9.57,4.53,1.01,8.06-.08,10.57-3.27,2.35-3.36,1.85-6.3-1.51-8.81-5.2-4.37-15.27-8.65-30.21-12.84-3.19-1.01-6.04-1.85-8.56-2.52-2.35-.84-4.36-1.59-6.04-2.27h-1.51c-1.17,0-2.18.51-3.02,1.51-.67.84-.67,2.27,0,4.28,2.01,1.85,4.11,3.7,6.29,5.54,3.36,2.69,7.81,5.63,13.35,8.81Z"/>
  <path d="M2902.31,1827.02c-.34-1.51-.67-2.6-1.01-3.27-.17-.84-.25-1.26-.25-1.26-6.21-6.04-15.44-7.13-27.69-3.27-7.05,0-13.51.25-19.39.75-5.87.5-11.16,1.34-15.86,2.52h-3.27c-5.87-.5-8.81-3.11-8.81-7.81-2.18-6.21-2.52-13.59-1.01-22.15,1.85-1.01,3.02-2.18,3.53-3.52.16-1.18-1.35-2.86-4.53-5.04-2.69-1.51-2.69-2.68,0-3.52,2.01-1.18,6.71-3.19,14.09-6.05,3.53-1.34,6.38-2.43,8.56-3.27,2.35-1.01,4.11-1.84,5.29-2.52,1.51-1.51.34-3.86-3.52-7.04-5.21-4.03-9.74-5.12-13.6-3.28-1.34.84-2.85,1.76-4.53,2.77-1.51,1.01-3.11,1.93-4.78,2.77-12.93,7.22-33.07,14.69-60.42,22.41-1.18,0-2.35.08-3.53.25-1.01,0-1.93.08-2.77.25-6.04.84-7.89,2.77-5.54,5.79,1.85,2.85,4.62,4.28,8.31,4.28,7.22,0,12-1.09,14.35-3.27.17-.17.76-.42,1.76-.76,7.72-1.84,13.51-3.19,17.37-4.03,3.86-.83,5.79-1.25,5.79-1.25l3.03,8.05c3.86,14.94,4.44,24.92,1.76,29.96-3.02,5.37-11.83,8.98-26.44,10.83h-5.03c-1.68,0-3.61.08-5.79.25-9.9.33-18.04.5-24.42.5-6.38-.17-10.91-.42-13.6-.75-1.17-.17-2.26-.26-3.27-.26-1.01-.16-1.93-.25-2.77-.25-5.03-.33-6.21,1.01-3.52,4.03,2.01,2.18,4.03,3.44,6.04,3.78.34.16.75.5,1.26,1,.67.34,1.43.84,2.26,1.51,1.35.84,2.44,1.6,3.28,2.27.84.67,1.59,1.17,2.26,1.51,7.22,4.53,14.6,4.78,22.16.75,1.34-.33,2.85-.75,4.53-1.25,1.84-.51,3.69-.93,5.54-1.26,12.42-2.35,19.63-3.86,21.65-4.53,4.03-1.51,7.38-1.43,10.07.25,4.53,2.52,5.79,7.21,3.77,14.1-1.84,4.19-3.44,7.8-4.78,10.82-1.34,3.02-2.43,5.46-3.27,7.3-10.07,21.15-21.4,36-33.99,44.56-1.1,1.1-2.17,2.12-3.23,3.11-.04-.03-.1-.05-.14-.07-3.79-2.48-13.89-8.13-22.2-3.72-8.32,4.4-10.86,16.53-6.58,22.79,3.61,5.28,10.77,4.61,18.86.55,3.61-1.82,6.58-4.28,9.4-7.58,1.24-.91,2.45-1.82,3.64-2.74,2.18-1.68,4.2-3.36,6.04-5.04,28.37-22.66,46.24-45.98,53.62-69.98l.76-3.78c3.86-14.1,13.93-21.15,30.21-21.15h3.78c1.51-.17,3.18-.33,5.03-.5,10.74-1.18,18.46-1.01,23.16.5.34,0,.59.09.76.25,12.25,2.19,18.12.09,17.62-6.29Z"/>
  <path d="M2914.65,1752.75c-9.24-10.4-19.89-17.28-31.98-20.64-3.02.17-5.03.76-6.04,1.76-.17.17.42,1.43,1.76,3.78,11.58,7.89,21.23,17.62,28.95,29.2,0,1.01.42,1.93,1.26,2.77.84.34,1.51.59,2.02.76.5.16.75.25.75.25,3.02.5,5.46-.17,7.3-2.02,2.52-2.85,2.77-6.12.76-9.81-.67-.84-1.43-1.77-2.27-2.77-.84-1.01-1.68-2.1-2.51-3.28Z"/>
  <path d="M2841.13,2399.43c-.33.83-.67,1.59-1,2.26-24.91,45.71-54.3,79.68-88.15,101.96-.48-.16-.9-.32-1.19-.51-3.79-2.48-13.89-8.13-22.2-3.72-8.31,4.4-10.86,16.53-6.58,22.79,3.61,5.28,10.78,4.61,18.86.55,1.4-.7,2.69-1.5,3.93-2.4,9.42-3.64,21.05-10.63,34.91-20.99,3.86-3.36,7.72-6.88,11.58-10.57,3.86-3.86,7.63-7.89,11.33-12.09,11.07-12.58,25.59-32.89,43.55-60.92,3.36-5.2,6.21-9.73,8.56-13.59,2.52-3.87,4.61-7.05,6.29-9.57,3.02-1.01,5.21-2.18,6.55-3.53,2.52-3.69-.59-7.63-9.32-11.83-7.21-4.03-14.35-5.12-21.4-3.27-1.67.33-3.6.75-5.79,1.26-2.01.5-4.36.92-7.04,1.26-15.61,2.01-24.51,3.27-26.69,3.77.17-.84.25-1.59.25-2.26,0-.84.09-1.51.25-2.02,1.35-12.25,1.18-19.38-.5-21.4-1.34-2.01-5.37-3.6-12.08-4.78-2.19,14.77-6.97,29.37-14.35,43.81-3.86,7.55-9.4,16.44-16.62,26.68s-16.2,21.82-26.94,34.74c.34.17.34.67,0,1.51-.16.84-.25,1.51-.25,2.02-.33.5-.08.92.76,1.26.67.33,1.51.42,2.51.25,1.01-.34,1.85-.67,2.52-1.01,6.38-3.36,18.3-18.04,35.75-44.06,1.85-2.68,3.36-4.86,4.53-6.54,1.18-1.68,2.1-2.94,2.77-3.78.34-.33.67-.75,1.01-1.26.5-.67,1.09-1.34,1.76-2.01,3.02-3.86,5.2-5.79,6.55-5.79,12.25-4.03,30.54-8.06,54.88-12.08.67,0,1.26.08,1.76.25,2.85,1.34,4.28,3.27,4.28,5.79-1.51,1.51-2.85,3.77-4.03,6.79-.33,1.18-.67,2.19-1.01,3.03Z"/>
  <path d="M2855.23,1750.74c1.18,2.69,5.29,7.47,12.34,14.35,10.74,10.24,16.28,15.61,16.61,16.11,3.02,3.19,6.47,4.03,10.33,2.52,4.02-1.68,4.78-4.87,2.26-9.57-.84-.67-2.1-1.68-3.78-3.02-1.51-1.51-3.44-3.35-5.79-5.54-4.53-4.19-9.14-7.72-13.84-10.57-4.7-2.85-9.48-4.95-14.35-6.29-1.68-.51-2.94.16-3.78,2.01Z"/>
  <path d="M2816.46,1491.73c-.5-.34-1.09-.76-1.76-1.26-.5-.51-1.09-.93-1.76-1.26-3.86-2.18-6.13-3.61-6.8-4.28-3.19-1.68-5.71-1.01-7.55,2.01-2.35,4.53-1.93,9.4,1.26,14.6.5,2.35,1,4.7,1.51,7.05.5,2.35.92,4.7,1.26,7.05,3.02,18.46,3.1,40.79.25,66.97-2.18,6.54-3.27,15.52-3.27,26.94,0,3.02.58,5.62,1.76,7.8,2.85,4.2,6.63,4.95,11.33,2.27,2.85-2.19,6.04-4.54,9.56-7.05,3.7-2.52,7.64-5.29,11.84-8.31,32.05-22.49,54.21-38.6,66.46-48.34,1.51-1.34,2.93-2.77,4.28-4.28.58-.67,1.11-1.31,1.56-1.92.74-.83,1.45-1.69,2.11-2.63,5.18-7.42,6.87-14.42,2.16-18.74-5.58-5.13-17.95-4.35-23.5,3.24-4.78,6.55-2.37,15.47-.38,20.44-14.65,11.98-33.63,25.52-56.97,40.65-1.68,1.17-3.61,1.51-5.79,1.01-2.86-.84-4.28-2.27-4.28-4.28v-84.34c0-6.71-1.1-11.16-3.28-13.34Z"/>
  <path d="M2732.38,1199.49c1.68.5,3.52,1.17,5.54,2.01,8.22,4.03,12.33,12.84,12.33,26.44v57.4c.17,14.26,7.39,25,21.65,32.22,29.37,10.78,56.44,16.72,81.2,17.82.56.3,1.37.48,2.52.48,7.83,0,13.6-1.02,18.96-4.13,7.83-4.53,12.32-10.15,9.89-16.07-2.89-7-14.43-11.54-22.67-7-5.97,3.28-8.04,10.23-8.73,15.54-.37-.03-.73-.06-1.11-.1-1.85-.16-3.86-.33-6.04-.5-7.39-.84-13.43-1.51-18.13-2.01-4.53-.51-7.72-.76-9.56-.76-18.63-4.36-31.73-8.98-39.28-13.84-9.23-3.19-14.01-11.67-14.35-25.43,0-1.18.25-2.52.76-4.03,2.01-5.54,6.54-10.07,13.59-13.59,12.93-2.86,30.8-8.9,53.62-18.13.68-.34,1.26-.59,1.77-.75,11.58-5.04,19.3-9.49,23.16-13.35l1.26-1.26c.67-.67,1.59-1.42,2.77-2.26,3.86-3.36,4.95-5.79,3.27-7.3-.17-.51-.59-1.26-1.26-2.27-3.19-5.7-7.55-8.56-13.09-8.56-6.21.17-8.56,2.52-7.05,7.05,0,2.52-.25,4.78-.76,6.8-1,4.87-4.36,8.64-10.07,11.33-2.18,1.17-4.78,2.35-7.8,3.52-3.02,1.18-6.46,2.35-10.32,3.53-9.4,3.18-16.78,5.7-22.16,7.55-5.37,1.68-8.64,2.77-9.81,3.27-5.21,1.18-9.15,1.43-11.84.76-4.02-1.35-6.04-6.38-6.04-15.11v-14.35c.17-.17.25-.33.25-.5,0-.34.09-.59.26-.76,2.18-8.56-.42-16.44-7.81-23.66-.33-.34-.75-.67-1.26-1.01-.33-.5-.75-.92-1.26-1.26-6.21-5.7-14.85-8.56-25.93-8.56,0,2.35.51,4.45,1.51,6.3,1.35,2.35,2.02,3.86,2.02,4.53Z"/>
  <path d="M2916.16,2345.05c-.84-1.01-1.68-2.1-2.52-3.28-9.23-10.4-19.89-17.28-31.97-20.64-3.02.17-5.04.76-6.05,1.76-.16.17.42,1.43,1.77,3.78,11.58,7.89,21.23,17.62,28.95,29.2,0,1.01.42,1.93,1.26,2.77.84.34,1.51.59,2.01.76.5.17.76.25.76.25,3.02.5,5.45-.17,7.3-2.01,2.51-2.86,2.77-6.13.75-9.82-.67-.84-1.42-1.77-2.26-2.77Z"/>
  <path d="M2905.33,1196.97c0,1.01.42,1.93,1.26,2.77.84.34,1.51.59,2.01.76.51.16.76.25.76.25,3.02.5,5.45-.17,7.3-2.02,2.52-2.85,2.77-6.12.75-9.81-.67-.84-1.42-1.77-2.26-2.77-.84-1.01-1.68-2.1-2.52-3.28-9.23-10.4-19.89-17.28-31.97-20.64-3.02.17-5.04.75-6.04,1.76-.17.17.42,1.43,1.76,3.78,11.58,7.89,21.23,17.62,28.95,29.2Z"/>
  <path d="M2891.99,2360.15c-1.51-1.51-3.44-3.35-5.79-5.54-4.53-4.19-9.15-7.72-13.85-10.57-4.7-2.85-9.48-4.95-14.35-6.29-1.68-.51-2.94.16-3.77,2.01,1.17,2.69,5.28,7.47,12.33,14.35,10.74,10.24,16.28,15.61,16.62,16.11,3.02,3.19,6.46,4.03,10.32,2.52,4.03-1.68,4.78-4.87,2.26-9.57-.83-.67-2.09-1.67-3.77-3.02Z"/>
  <path d="M2865.55,1195.21c10.75,10.24,16.28,15.61,16.62,16.11,3.02,3.19,6.46,4.03,10.32,2.52,4.03-1.68,4.78-4.87,2.27-9.57-.84-.67-2.1-1.68-3.78-3.02-1.51-1.51-3.44-3.36-5.79-5.54-4.53-4.19-9.15-7.72-13.85-10.57-4.69-2.85-9.48-4.95-14.35-6.29-1.67-.51-2.93.16-3.77,2.01,1.17,2.68,5.29,7.47,12.33,14.35Z"/>
  <path d="M2874.4,2720.55c-2.42.32-4.55,1.26-6.41,2.54-.14-.07-.29-.16-.42-.22-.26.38-.52.75-.79,1.12-2.1,1.72-3.8,3.86-5.15,5.97-5.94,5.61-13.27,8.79-22.01,9.53-3.69.17-12.92-.59-27.69-2.26.34-1.85.84-3.78,1.51-5.79,3.36-8.4,8.48-13.68,15.36-15.86,3.02-1.01,6.71-3.02,11.08-6.05,1.34-.84,2.43-1.59,3.27-2.26,1.01-.67,1.84-1.09,2.52-1.26l1.76-1.76c5.03-5.04,7.47-8.65,7.3-10.83-.34-2.18-3.36-6.12-9.06-11.83v-2.27c-.84-.67-1.68-1.17-2.52-1.51-.84-.5-1.6-.92-2.27-1.26-3.52-1.34-6.71-.41-9.56,2.77-.51.34-1.01.76-1.51,1.26l-1.51,1.51c-8.9,7.39-20.06,9.65-33.49,6.8-.33-.17-.75-.25-1.26-.25s-.92-.09-1.26-.25c-11.24-2.69-19.3-7.3-24.16-13.85-1.01-1.17-2.27-1.76-3.78-1.76-2.35,0-3.52,1.43-3.52,4.28-.17.5-.42,1.09-.76,1.76-.33.67-.67,1.43-1.01,2.27-1.17,4.53-2.09,7.13-2.77,7.8-2.35,3.86-4.53,7.3-6.54,10.32-2.01,2.86-3.69,5.29-5.04,7.3-16.28,24.84-32.64,43.22-49.09,55.14-.17,0-.75.16-1.76.5-.17.67-.34,1.17-.5,1.51-.17.34-.25.5-.25.5,1.51,1.18,3.18,1.93,5.03,2.27,0,0,.5-.08,1.51-.25,1.01-.34,2.43-.76,4.28-1.26,6.38-1.85,10.91-5.37,13.59-10.57.84-1.35,1.85-2.61,3.03-3.78,1.17-1.34,2.6-2.6,4.28-3.78,2.85-2.18,5.11-3.86,6.79-5.03,1.68-1.18,2.6-1.85,2.77-2.02.51.34,1.01.76,1.51,1.26.51.34.93.67,1.26,1.01,6.38,4.87,8.64,10.57,6.8,17.12,0,7.22-.25,13.68-.76,19.38-.33,5.54-.92,10.41-1.76,14.61v2.76c0,1.01-.08,2.02-.25,3.03-.17,4.36-1.09,10.15-2.77,17.37-1.51,7.05-3.69,15.44-6.55,25.17-2.68,10.57-7.46,21.82-14.35,33.74-.33.67-.83,1.51-1.51,2.51-.67,1.18-1.42,2.44-2.26,3.78-1.68,2.18-2.94,4.2-3.78,6.04,0,.34-.08.59-.25.76-.84,3.52.34,5.45,3.53,5.79,4.36.5,8.14-2.52,11.32-9.07.84-2.18,2.1-4.78,3.78-7.8,1.68-2.85,3.61-6.13,5.79-9.82,7.22-11.58,11.33-21.06,12.34-28.45.16-4.86,2.6-6.46,7.3-4.78h14.35c2.68-.34,5.62-.59,8.81-.75,3.19-.17,6.63-.34,10.32-.51,16.95-1.01,30.13-1.76,39.52-2.26,9.4-.68,14.94-1.09,16.62-1.26,7.38,0,12.34.75,14.85,2.26,2.19,1.35,3.36,4.62,3.53,9.82.17,1.51.33,2.94.5,4.28.17,1.18.34,2.18.5,3.02v9.57c-.16,2.85-2.68,4.45-7.55,4.78h-16.86l-.76.76c-.34.5-.76,1.17-1.26,2.01-.33.84-.5,1.6-.5,2.27s.2,1.33.59,2.05c.02.27.09.58.22.94,2.68,7.36,12.21,17.4,16.96,21.38,6.93,5.81,13.75,8.12,18.48,3.81,1.19-1.09,2.13-2.52,2.82-4.14,1.47-2.11,2.21-5.34,2.21-9.69v-4.53c0-1.68.09-3.45.26-5.29.33-7.39.5-13.68.5-18.88s-.25-9.49-.76-12.34c0-2.68-.08-5.54-.25-8.56,0-3.02-.08-6.21-.25-9.56-.67-13.77-1.17-24.34-1.51-31.73-.33-7.55-.5-11.91-.5-13.09,0-7.05,2.51-14.35,7.55-21.9,1.17-1.34,2.1-2.43,2.77-3.27.84-1.01,1.51-1.85,2.01-2.52,1.26-1.45,2.29-2.8,3.1-4.06,2.04-1.81,3.23-5.06,3.23-11.21,0-7.7-9.41-16.25-18.88-14.99ZM2743.96,2730.17c.67-.84,1.34-1.68,2.01-2.52.67-.84,1.35-1.76,2.02-2.77,8.22-10.24,13.34-17.37,15.35-21.4.67-1.17,1.35-2.26,2.02-3.27.67-1.01,1.34-1.85,2.01-2.52,2.85-2.68,7.97-3.1,15.36-1.26,6.38,0,12.17.17,17.37.51,5.2.33,9.9.84,14.1,1.51,1.17,0,2.35.33,3.52,1,2.69,2.19,3.11,5.12,1.26,8.82-9.23,12.58-17.29,21.48-24.17,26.68-11.07,5.37-20.73,6.97-28.95,4.78-4.87-1.67-9.15-3.27-12.84-4.78s-6.71-3.1-9.06-4.78ZM2799.6,2800.41c-.17.67-.26,1.42-.26,2.26s-.08,1.85-.25,3.02c-1,9.07-2.35,14.44-4.03,16.11-2.85,2.86-10.15,3.7-21.9,2.52h-2.26c-.84,0-1.68.09-2.52.25-7.55.84-13.26.76-17.12-.25,1.34-3.02,2.18-6.96,2.52-11.83.16-.67.33-1.43.5-2.27.34-1,.67-2.18,1.01-3.52,1.68-6.71,4.36-11.25,8.05-13.59,10.74-5.38,21.23-7.05,31.47-5.04.51,0,.93.08,1.26.25,2.35,1.01,3.53,2.6,3.53,4.79v7.3ZM2800.85,2772.46c-.33,1.01-.58,1.68-.75,2.02-1.18,2.68-4.53,4.02-10.07,4.02-.5,0-1.68.17-3.53.51-1.67.16-4.11.42-7.3.75-3.19.34-5.79.67-7.8,1.01-1.85.17-2.94.25-3.27.25-.51,0-1.01-.08-1.51-.25-1.18-.84-2.02-1.43-2.52-1.76-.5-.34-.76-.51-.76-.51-2.18-2.18-3.02-6.46-2.51-12.84,1-7.88,3.44-12.5,7.3-13.84,1.84-1.34,5.03-2.1,9.56-2.27,10.74-2.35,17.54-2.52,20.4-.5,2.68,2.18,4.02,8.73,4.02,19.64-.5,1.51-.92,2.76-1.26,3.77ZM2821.5,2747.03h25.42c.68,0,1.43-.08,2.27-.25,6.04-.84,9.73.09,11.08,2.77.17.17.25.34.25.51.17.16.33.33.5.5,2.86,4.87,2.6,13.34-.75,25.43l-5.04,2.51h-21.65c-9.06-1-14.6-2.01-16.61-3.02-1.35-1-2.1-3.86-2.27-8.56,0-2.01-.08-3.86-.25-5.54,0-1.84-.09-3.44-.25-4.78-.17-.5-.34-1.01-.51-1.51v-1.51c-.33-4.36,2.27-6.55,7.81-6.55ZM2861.02,2818.03c-1.34,1.84-4.44,3.27-9.31,4.28-1.68.33-3.19.67-4.53,1.01-1.35.33-2.61.67-3.78,1h-9.82c-1.17-.17-2.18-.25-3.02-.25-.67,0-1.34-.08-2.01-.25-8.23-1.01-12.93-2.6-14.1-4.78-1.18-2.19-1.26-8.4-.25-18.63v-12.34l2.26-2.52c2.18-.33,4.87-.58,8.06-.75,3.36-.17,7.22-.09,11.58.25,2.68.17,5.03.33,7.05.5h5.03c4.87,1.01,8.23,2.35,10.07,4.03,1.51,1.51,3.02,5.87,4.53,13.09,0,8.06-.58,13.18-1.76,15.36Z"/>
  <path d="M2702.51,1626.29c.76-.08,1.56-.19,2.43-.38,6.04-1.18,10.57-3.27,13.59-6.29,23.16-19.14,38.86-37.1,47.08-53.88,6.38-9.73,9.73-20.98,10.07-33.73-.34-12.93-5.96-20.73-16.87-23.42-4.19-1.51-6.96-1-8.31,1.51-1,2.19-.42,3.86,1.77,5.04.67.33,1.26.75,1.76,1.26.5.5,1.09,1,1.76,1.51,2.85,3.19,3.95,7.63,3.27,13.34-.16.84-.25,1.68-.25,2.52v1.51c-3.19,17.79-10.99,34.66-23.41,50.6l-.25.25c-3.19,4.2-5.79,7.64-7.81,10.32-2.01,2.52-4.11,4.87-6.29,7.05-.81.88-1.76,1.83-2.83,2.84-4.07-3.48-11.74-8.61-19.47-6.19-8.97,2.81-13.68,14.28-10.62,21.21,2.16,4.91,7.56,6.15,14.38,4.93Z"/>
</svg>