<?xml version="1.0" encoding="UTF-8"?>
<svg xmlns="http://www.w3.org/2000/svg" id="_&#12524;&#12452;&#12516;&#12540;_1" data-name="&#12524;&#12452;&#12516;&#12540;_1" version="1.1" viewBox="1897.62 1323.39 1804.77 1353.22">
  
  <defs>
    <style>
      .st0 {
        fill: #4471ce;
      }
    </style>
  </defs>
  <path d="M2994.36,2609.76c-24.04,0-45.26-5.65-63.67-16.93-18.15-11.53-32.38-27.98-42.69-49.32-10.3-21.35-15.46-46.85-15.46-76.54s5.16-54.59,15.46-75.45c10.31-20.86,24.54-36.81,42.69-47.84,18.4-11.05,39.63-16.56,63.67-16.56s45.51,5.65,63.67,16.93c18.17,11.03,32.39,26.98,42.69,47.84,10.31,20.61,15.46,45.63,15.46,75.08s-5.15,55.19-15.46,76.54c-10.3,21.35-24.52,37.79-42.69,49.32-18.15,11.28-39.38,16.93-63.67,16.93ZM2994.36,2562.64c13.5,0,25.16-3.93,34.97-11.77,10.06-7.86,17.78-18.9,23.18-33.13,5.4-14.48,8.09-31.41,8.09-50.78s-2.69-35.95-8.09-49.69c-5.4-13.98-13.12-24.66-23.18-32.01-9.81-7.61-21.46-11.42-34.97-11.42s-25.27,3.81-35.32,11.42c-9.83,7.36-17.43,18.04-22.83,32.01-5.15,13.74-7.72,30.3-7.72,49.69s2.57,36.31,7.72,50.78c5.4,14.23,13,25.27,22.83,33.13,10.05,7.84,21.83,11.77,35.32,11.77Z" />
  <path d="M2642.61,2604.62v-272.71h74.7c27.98,0,51.9,4.9,71.77,14.71,20.12,9.81,35.57,24.66,46.37,44.53,11.05,19.87,16.56,45.15,16.56,75.82s-5.4,56.18-16.2,76.55c-10.8,20.36-26.01,35.69-45.63,46-19.62,10.06-42.94,15.09-69.92,15.09h-77.66ZM2697.08,2560.45h16.55c17.18,0,31.91-3.06,44.16-9.19,12.52-6.38,22.08-16.43,28.72-30.17,6.62-13.99,9.93-32.03,9.93-54.11s-3.31-39.75-9.93-53c-6.63-13.49-16.2-23.18-28.72-29.07-12.25-6.13-26.98-9.19-44.16-9.19h-16.55v184.74Z" />
  <path d="M2086.74,2604.62v-272.71h54.46v118.49h1.12l90.16-118.49h59.99l-83.17,107.46,97.88,165.24h-59.61l-70.67-122.55-35.7,46v76.55h-54.46Z" />
  <path d="M2847.35,2132.13v-272.71h167.08v45.63h-112.62v62.93h95.33v45.63h-95.33v72.88h116.67v45.63h-171.13Z" />
  <path d="M2737.87,2132.11c-16.56,0-32.08-2.84-46.51-8.52-14.45-5.92-27.22-14.68-38.35-26.27-10.89-11.61-19.53-25.8-25.92-42.62-6.16-16.8-9.24-36.09-9.24-57.86s3.19-41.07,9.59-57.88c6.39-17.05,15.14-31.49,26.27-43.32,11.35-11.84,24.38-20.83,39.06-26.99,14.92-6.15,30.66-9.23,47.22-9.23s31.72,3.43,44.74,10.29c13.26,6.63,24.03,14.45,32.32,23.43l-27.34,33.38c-6.63-6.63-13.97-11.95-22.01-15.98-7.82-4.02-16.69-6.03-26.64-6.03-13.26,0-25.21,3.68-35.87,11.01-10.4,7.1-18.58,17.39-24.5,30.88-5.92,13.5-8.87,29.71-8.87,48.65s2.73,35.62,8.16,49.35c5.69,13.5,13.61,23.9,23.79,31.25,10.42,7.34,22.5,11,36.22,11,11.37,0,21.43-2.37,30.19-7.1,8.98-4.98,16.92-11.25,23.79-18.82l28.04,32.66c-10.89,12.79-23.32,22.5-37.28,29.12-13.97,6.39-29.58,9.58-46.86,9.58Z" />
  <path d="M2179.36,2132.13v-272.71h89.44c20.11,0,38.14,2.69,54.09,8.09,16.2,5.4,28.95,14.36,38.28,26.86,9.56,12.27,14.36,29.2,14.36,50.8s-4.8,37.66-14.36,51.15c-9.33,13.25-21.96,23.07-37.91,29.45-15.7,6.37-33.36,9.56-52.99,9.56h-36.44v96.8h-54.47ZM2233.84,1992.28h32.75c18.65,0,32.51-3.93,41.59-11.77,9.33-7.86,13.99-19.64,13.99-35.34s-4.9-26.63-14.73-32.76c-9.56-6.37-23.79-9.56-42.69-9.56h-30.91v89.43Z" />
  <path d="M2060.33,2132.11c-17.51,0-34.69-3.31-51.49-9.93-16.8-6.63-31.59-16.09-44.38-28.41l30.19-36.21c9.23,8.76,19.76,15.85,31.59,21.3,12.08,5.21,23.79,7.81,35.16,7.81,13.72,0,24.14-2.73,31.24-8.16,7.11-5.45,10.66-12.79,10.66-22.01,0-6.63-1.77-11.84-5.32-15.63-3.32-4.03-7.93-7.58-13.85-10.66-5.92-3.08-12.79-6.15-20.59-9.23l-34.8-15.27c-8.76-3.55-17.27-8.29-25.56-14.21-8.05-6.15-14.79-13.84-20.24-23.08-5.21-9.23-7.81-20.24-7.81-33.01,0-14.45,3.9-27.35,11.71-38.7,7.82-11.37,18.58-20.37,32.32-26.99,13.72-6.86,29.35-10.29,46.86-10.29,15.63,0,30.66,2.95,45.09,8.87,14.45,5.92,26.99,14.32,37.64,25.21l-26.63,32.67c-8.29-6.87-16.93-12.19-25.92-15.98-9-3.79-19.06-5.68-30.19-5.68s-20.48,2.48-27.34,7.45c-6.63,4.74-9.95,11.48-9.95,20.24,0,6.16,1.9,11.25,5.68,15.27,3.79,4.03,8.77,7.58,14.92,10.66,6.16,2.84,12.9,5.79,20.24,8.87l34.45,13.85c10.64,4.26,19.88,9.58,27.69,15.98,8.05,6.39,14.21,14.08,18.46,23.08,4.5,9,6.76,19.88,6.76,32.66,0,14.21-3.92,27.35-11.72,39.41-7.58,12.08-18.58,21.79-33.03,29.12-14.19,7.34-31.48,11-51.83,11Z" />
  <path d="M3499.38,1667.73v-99.74l-82.07-172.97h57.77l27.24,66.61c3.93,10.31,7.72,20.37,11.4,30.19,3.93,9.56,7.97,19.62,12.15,30.17h1.47c4.18-10.55,8.22-20.61,12.15-30.17,4.16-9.81,8.21-19.87,12.14-30.19l27.23-66.61h56.68l-82.07,172.97v99.74h-54.09Z" />
  <path d="M3428.69,1667.73l-63.57-111.39c.46-.17.93-.31,1.38-.48,15.46-6.13,27.71-15.58,36.81-28.35,9.08-13,13.61-29.55,13.61-49.68s-4.53-37.29-13.61-49.31c-9.09-12.27-21.35-20.86-36.81-25.77-15.46-5.15-32.88-7.72-52.27-7.72h-94.57v272.71h54.46v-103.05h37.75l55.73,103.05h61.09ZM3274.11,1438.45h35.34c17.67,0,31.04,2.94,40.12,8.84,9.33,5.63,13.99,15.81,13.99,30.54s-4.66,25.39-13.99,32.76c-9.08,7.36-22.45,11.03-40.12,11.03h-35.34v-83.17Z" />
  <path d="M3023.37,1667.73v-272.71h167.08v45.63h-112.61v62.93h95.33v45.63h-95.33v72.88h116.67v45.63h-171.14Z" />
  <path d="M2832.99,1667.73v-272.71h54.46v227.07h110.79v45.63h-165.24Z" />
  <path d="M2642.61,1667.73v-272.71h54.47v227.07h110.77v45.63h-165.24Z" />
  <path d="M2223.68,1667.74c-24.09,0-45.88-5.3-65.39-15.9-19.27-10.6-34.56-26.14-45.88-46.61-11.32-20.48-16.98-45.54-16.98-75.16,0-22.17,3.25-41.8,9.75-58.9,6.74-17.35,16.02-32.03,27.83-44.08,11.8-12.04,25.4-21.2,40.83-27.47,15.41-6.25,32.03-9.39,49.85-9.39,19.27,0,35.66,3.61,49.15,10.85,13.72,6.98,24.93,14.8,33.59,23.48l-28.54,33.95c-6.74-6.25-14.21-11.55-22.4-15.89-7.96-4.35-17.95-6.51-30-6.51-14.93,0-28.06,3.74-39.38,11.21-11.32,7.22-20.1,17.71-26.37,31.43-6.27,13.73-9.39,30.23-9.39,49.51s2.89,36.25,8.67,50.22c6.02,13.73,14.93,24.34,26.73,31.8,11.81,7.47,26.39,11.19,43.72,11.19,6.51,0,12.77-.84,18.79-2.53,6.02-1.92,10.85-4.45,14.46-7.58v-52.76h-47.33v-43.72h95.38v120.68c-9.14,8.91-21.32,16.49-36.48,22.76-15.18,6.27-32.05,9.4-50.59,9.4Z" />
  <polygon class="st0" points="2309.16 2604.62 2364.28 2604.62 2474.89 2428.8 2585.51 2604.62 2640.63 2604.62 2504.85 2381.19 2505.06 2380.86 2475.9 2333.56 2474.9 2331.92 2474.89 2331.93 2474.89 2331.92 2473.89 2333.56 2444.73 2380.86 2444.94 2381.19 2309.16 2604.62" />
  <polygon class="st0" points="2309.16 2132.13 2364.28 2132.13 2474.89 1956.31 2585.51 2132.13 2640.63 2132.13 2504.85 1908.7 2505.06 1908.37 2475.9 1861.07 2474.9 1859.42 2474.89 1859.44 2474.89 1859.42 2473.89 1861.07 2444.73 1908.37 2444.94 1908.7 2309.16 2132.13" />
  <polygon class="st0" points="2309.16 1667.73 2364.28 1667.73 2474.89 1491.91 2585.51 1667.73 2640.63 1667.73 2504.85 1444.3 2505.06 1443.97 2475.9 1396.67 2474.9 1395.02 2474.89 1395.04 2474.89 1395.02 2473.89 1396.67 2444.73 1443.97 2444.94 1444.3 2309.16 1667.73" />
</svg>