<?xml version="1.0" encoding="UTF-8"?>
<svg xmlns="http://www.w3.org/2000/svg" id="_&#12524;&#12452;&#12516;&#12540;_1" data-name="&#12524;&#12452;&#12516;&#12540;_1" version="1.1" viewBox="1923.88 1146.69 1757.82 1785.25">
  
  <defs>
    <style>
      .st0 {
        fill: #fff;
      }
    </style>
  </defs>
  <path d="M2851.92,2295.77c-496.83,17.57-755.86-279.84-802.75-385.25-54.71-131.76-59.17-161.88,0-328.78,59.17-166.9,215.48-205.8,761.44-287.37,545.95-81.56,789.34,200.78,797.16,424.15,7.81,223.37-259.02,559.68-755.85,577.25Z" />
  <path class="st0" d="M2960.95,1682.98c-74.91,0-188.57,75.56-189.33,77.39-6,4.82-77.73,46.41-73.08,74.19,4.65,27.79,35.66,34.08,73.08,60.23,37.42,26.14,78.87,4.9,125.39,0,46.51-4.91,83.73-15.3,83.73-52.3,0-3.72-6.39-12.6-16.44-15.03-27.22-6.56-56.69,19.89-69.09,21.53-12.41,1.63-16.13,6.94-20.21,2.34-5.58-6.28-1.5-8.88,4.7-17.05,6.2-8.17,50.28-12.57,60.72-17.47,10.45-4.9,17.06,0,40.32,13.08,23.25,13.07,29.46,15.87,13.95,46.92-15.5,31.05-105.43,58.83-182.96,50.66-77.53-8.17-124.04-45.51-138-104.35-11.16-47.06,31.53-85.53,54.27-98.87,49.31-57.21,294.91-59.22,357.49-28.11,62.59,31.12,112.84,109.46,0,226.88-90.27,93.93-269.39,95.95-352.84,73.54-68.27,0-440.75-178.67-402.82-364.33,33.52-164.09,244.29-230.28,530.93-258.96,146.85-14.7,309.6-55.75,380.71,40.59,71.12,96.35,275.36,122.44,275.36,335.21,0,245.08-474.29,492.96-843.1,477.2-354.21-15.13-638.13-298.8-638.13-298.8,0,0-42.06-121.92-43.54-154.03,382.87,398.27,519.04,395.81,706.48,410.83,462.71,37.08,789.85-203.75,765.58-435.2-18.72-178.42-253.54-413.67-510.98-381.44-376.72,47.17-598.75,192.07-578.21,301.53,45.78,243.94,106.46,148.65,323.61,275.1,27.5,16.8,189.45,21.25,268.24,0,81.15-21.88,90.27-16.41,139.57-61.57,49.31-45.17,8.54-91.2,0-141.38-8.53-50.18-70.49-58.33-145.4-58.33Z" />
  <path d="M2646.65,2694.25v18.05l17.92-18.05h6.31l-19.69,19.63,20.32,22.46h-6.44l-17.22-19.31-1.2,1.2v18.11h-4.67v-42.09h4.67ZM2723.28,2694.25h4.67v42.09h-4.67v-42.09ZM2806.78,2700.12l-3.73,2.46c-.56-1.13-1.51-2.4-2.46-3.15-.82-.63-2.33-1.45-4.73-1.45-4.16,0-7.07,2.58-7.07,6.5,0,1.64.44,2.58,1.58,3.66,1.26,1.26,2.84,1.95,4.42,2.65l4.04,1.76c2.46,1.08,4.73,2.21,6.5,3.98,2.14,2.14,3.03,4.61,3.03,7.63,0,7.77-5.75,12.94-13.32,12.94-2.78,0-6.25-.57-9.15-3.41-2.08-2.02-3.35-4.92-3.91-7.44l4.54-1.27c.32,2.21,1.33,4.11,2.52,5.37,1.84,1.83,3.92,2.33,6.06,2.33,5.75,0,8.46-4.1,8.46-8.33,0-1.89-.57-3.53-2.08-4.92-1.2-1.13-2.84-1.89-5.05-2.9l-3.79-1.77c-1.64-.76-3.72-1.64-5.61-3.47-1.83-1.77-2.91-3.72-2.91-6.88,0-6.5,4.99-10.85,11.8-10.85,2.59,0,4.67.5,6.76,1.89,1.7,1.14,3.15,2.84,4.1,4.67ZM2883.52,2700.12l-3.72,2.46c-.57-1.13-1.52-2.4-2.46-3.15-.82-.63-2.34-1.45-4.74-1.45-4.16,0-7.06,2.58-7.06,6.5,0,1.64.44,2.58,1.57,3.66,1.27,1.26,2.84,1.95,4.42,2.65l4.04,1.76c2.46,1.08,4.73,2.21,6.5,3.98,2.15,2.14,3.03,4.61,3.03,7.63,0,7.77-5.74,12.94-13.32,12.94-2.77,0-6.24-.57-9.15-3.41-2.08-2.02-3.34-4.92-3.91-7.44l4.54-1.27c.32,2.21,1.33,4.11,2.53,5.37,1.83,1.83,3.91,2.33,6.06,2.33,5.74,0,8.45-4.1,8.45-8.33,0-1.89-.56-3.53-2.08-4.92-1.2-1.13-2.84-1.89-5.05-2.9l-3.78-1.77c-1.64-.76-3.73-1.64-5.62-3.47-1.83-1.77-2.9-3.72-2.9-6.88,0-6.5,4.98-10.85,11.8-10.85,2.58,0,4.67.5,6.75,1.89,1.7,1.14,3.16,2.84,4.1,4.67ZM2967.24,2736.34l-4.92-11.86h-17.93l-5.05,11.86h-5.17l19.37-44.11,18.87,44.11h-5.17ZM2946.22,2720.06h14.27l-7.07-16.85-7.2,16.85Z" />
  <g>
    <g>
      <path d="M2466.49,2548.12c-2.78-.96-4.43-3.16-4.93-5.86-2.87-15.35,2.16-28.25,9.8-41.41,3.32-5.73,5.93-11.76,9.89-17.08,3.18-4.27,5.46-8.41,6.96-13.62,1.22-4.24,3.01-8.56,6.46-11.4,4.16-3.42,8.45-6.74,10.79-11.69,2.49-5.27,5.44-9.83,10.14-13.42s8.71-7.46,12.42-12.04c5.27-6.52,10.82-12.34,17.25-17.73,2.9-3.69,6.14-6.87,10.17-9.3l15.25-9.2c3.18-1.92,7.15-2.85,10.75-1.94,3.73.94,5.42,4.67,5.2,8.36-.25,4.17-2.5,7.7-5.91,10.11l-9.36,6.6c-4.21,2.97-6.89,7.31-10.63,10.88-8.23,7.89-16.74,15.12-23.71,24.16-4.45,5.77-9.44,10.38-14.83,15.27s-6.58,14.94-14.02,22.94c-5.93,6.38-10.26,13.57-12.99,21.99-3.29,10.11-5.7,20.18-8.39,30.52s-10.35,17.29-20.29,13.86Z" />
      <path d="M2467.76,2572.55c2.01,9.8,6.79,17.5,5.18,23.76-.89,3.46-3.55,4.88-6.75,4.9-3.74.03-7.03-1.34-8.94-4.72-2.48-4.37-4.53-8.94-6.2-13.75l-3.08-8.88-3.07-10.36-4.49-19.1c-1.12-4.78-2.85-9.06-3.5-13.94-.75-5.58-1.94-10.61-3.56-16.12l.03-107.34c.97-4.41,1.85-8.39,2.14-12.77.48-7.21,1.38-20.58,6.78-22.35,1.26-.41,4.03-.48,5.41-.13,4.31,1.09,6.55,5.69,5.49,9.94-.88,3.56-1.02,6.88-1.02,10.59l-.02,61.76c-2.89,8.82-3.59,17.43-2.6,26.64l1.5,13.97c-.49,7.32.28,14.71,1.7,21.82l3.32,16.66,2.89,12.2c.8,3.38,1.72,6.77,3.07,9.95,2.43,5.7,4.47,11.17,5.72,17.26Z" />
      <path d="M2603.49,2593.23c-3.83,3.58-11.22-1.29-16.11-4.36-4.25-2.66-7.74-5.69-11.28-9.23-4.54-4.55-8.63-9.06-11.75-14.74l-6.6-9.89-7.81-11.72c-3.04-4.55-6.94-8.28-10.66-12.29-5.45-5.86-9.32-12.5-12.92-19.59l-6.9-11.56c-3.26-5.46-4.95-12.4-.5-15.14,4.17-2.57,9.71,1.6,13.26,5.89,5.26,6.36,10.82,11.98,17.14,17.33,3.68,3.12,6.38,7.17,8.45,11.48s4.41,7.9,7.62,11.45,5.56,7.53,7.69,11.74c2.85,5.64,6.09,10.46,10.2,15.33l16.89,20.04c2.45,2.91,4.06,6.43,4.99,10.12.46,1.8-.51,3.99-1.72,5.12Z" />
    </g>
    <g>
      <path d="M2920.84,2570.16c-13.72-13.64-17.1-25.61-17.5-44.96-.22-10.91,6.56-20.1,18.08-20s29.33,2.73,37.52,10.94l11.45,11.49c3.76,3.77,7.6,7.06,11.89,10.16,1.14.82,3.14,1.67,4.53,1.21.81-.86.92-3.49.67-4.8l-2.35-12.28-5.93-49.2-4.59-36.29-1.42-20.22c-.39-5.56-.34-14.86,2.88-16.17.84-.34,2.73-.14,3.68.36,5.98,3.09,5.76,13.07,5.94,20.32l.35,14.31c.25,10.2,1.66,19.94,3.4,30.05l3.58,30.57,3.37,29.52,4.38,23.53,3.4,21.47c.5,3.17-1.41,6.03-4.63,6.66l-15.69,3.07-26.48-.12c-9.21-.04-17.99-1.73-26.77-4.25-3.71-1.06-6.97-2.61-9.75-5.38ZM2967.4,2557.51c5.99,4.22,13.62,4.58,15.01.69,1.64-4.6-11.91-17.2-18.4-21.06l-17.57-10.44c-2.28-1.35-4.7-1.09-6.64.33-7.45,5.45-9.7,13.3-9.19,22.42.18,3.12,2.75,5.14,5.86,5.05l14.9-.44c5.97-.18,10.83-.21,16.04,3.46Z" />
      <path d="M3162.31,2573.59c-11.37,7.63-28.36,8.42-40.38,2.38l-7.29-3.66c-8.91-4.48-16.49-10.55-22.4-18.54-2.25-3.04-3.88-6.21-4.56-9.98-1.41-7.74-1.32-15.43.12-23.09,1.73-9.2,6.52-16.55,13.49-22.59,4.12-3.57,8.33-6.43,14.02-7.02l12.49-1.29,12.97.08c5.34.03,10.31,3.16,14.01,6.82l12.05,11.93c3.72,3.68,13.76,22.54,14.13,28.28.61,9.51-1.79,19.39-6.96,27.4-2.8,4.35-7.64,6.56-11.69,9.28ZM3160.26,2552.12c2.92-4.61,4.35-9.46,1.09-9.57l-6.87-.22c-3.63-.62-6.26-3.62-8.98-5.83-3.61-2.94-6.63-6.05-8.95-10.04-2.82-4.83-7.34-7.7-12.54-7.93-5.48-.24-10.54,2.2-13.59,6.73-4.78,7.1-8.44,13.88-1.59,20.91l6.46,6.63c2.45,2.51,1.38,8.78,7.57,10.93,13.65,4.75,29.38,1.03,37.4-11.62Z" />
      <path d="M2790.4,2557.52l-6.51-8.2c-2.76-3.47-7.81-3.38-11.24-.46l-8.77,9.16-11.37,11.64c-3.75,3.84-9.01,6.36-14.51,6.92-9.78,1-29.8,2.14-36.21-2.22-4.84-3.29-7.3-9.12-8.68-14.71-2.59-10.53-.86-21.07,3.53-30.93,5.06-11.37,13.83-20.03,24.27-26.66,3.4-2.16,6.26-4.9,9.94-6.54,5.63-2.5,11.59-2.36,17.65-2.51,7.77-.19,14.95.84,21.93,4.29l11.73,4.74c3.61,1.46,7.1,2.95,9.98,5.44,4.16,3.61,5.79,8.77,4.25,14.11l-2.68,9.28c-1.27,4.39-.73,8.98,2.16,12.43l8.63,10.35,7.75,9.76c1.17,1.47,1.46,4.04.76,5.82-1.61,4.1-15.24-.72-22.6-11.7ZM2709.71,2554.39c-.37,4.44,2.88,7.09,6.82,7.01,5.04-.11,10.34.17,14.8-2.5,7.12-4.26,13.85-17.21,17.33-25.52,3.63-8.67-.42-18.51-6.58-18.91-2.09-.14-4.17,1.88-6.04,2.61-3.95,1.54-7.32,3.47-9.31,7.34l-3.38,6.6-4.65,7.8c-1.34,2.25-2.31,4.49-4.1,6.44-2.31,2.51-4.58,5.47-4.89,9.14Z" />
    </g>
  </g>
  <g>
    <path d="M2560.3,2820.95l-19.38,44.11h5.18l5.05-11.86h17.92l4.92,11.86h5.18l-18.87-44.11ZM2552.98,2848.78l7.19-16.85,7.07,16.85h-14.26Z" />
    <path d="M2652.39,2828.84l-3.72,2.46c-.57-1.13-1.52-2.4-2.46-3.15-.82-.63-2.34-1.45-4.74-1.45-4.16,0-7.07,2.58-7.07,6.5,0,1.64.45,2.58,1.58,3.66,1.26,1.26,2.84,1.95,4.42,2.65l4.04,1.76c2.46,1.08,4.73,2.21,6.5,3.98,2.14,2.14,3.03,4.61,3.03,7.63,0,7.77-5.75,12.94-13.32,12.94-2.77,0-6.25-.57-9.15-3.41-2.08-2.02-3.34-4.92-3.91-7.44l4.54-1.27c.32,2.21,1.33,4.11,2.53,5.37,1.83,1.83,3.91,2.33,6.06,2.33,5.74,0,8.45-4.1,8.45-8.33,0-1.89-.57-3.53-2.08-4.92-1.2-1.13-2.84-1.89-5.05-2.9l-3.79-1.77c-1.64-.76-3.72-1.64-5.61-3.47-1.83-1.77-2.91-3.72-2.91-6.88,0-6.5,4.99-10.85,11.81-10.85,2.58,0,4.67.5,6.75,1.89,1.7,1.14,3.15,2.84,4.1,4.67Z" />
    <path d="M2722.41,2820.95l-19.37,44.11h5.17l5.05-11.86h17.92l4.93,11.86h5.17l-18.87-44.11ZM2715.09,2848.78l7.2-16.85,7.06,16.85h-14.26Z" />
    <path d="M2813.13,2848.34v-4.42h17.54v1.01c0,4.67-1.38,9.72-4.03,13.32-1.27,1.7-6,7.57-15.66,7.57-12.49,0-21.83-9.53-21.83-21.77s9.4-21.77,21.96-21.77c4.04,0,8.77,1.01,12.87,4.16,1.9,1.45,3.67,3.35,4.86,4.99l-3.47,3.15c-1.2-1.7-2.58-3.22-3.97-4.35-2.02-1.64-5.18-3.53-10.23-3.53-10.16,0-17.22,7.63-17.22,17.41,0,11.49,9.15,17.29,17.1,17.29,5.61,0,10.47-2.84,12.87-7.06.76-1.33,1.58-3.35,1.71-6h-12.5Z" />
    <path d="M2899.13,2820.95l-19.37,44.11h5.17l5.05-11.86h17.93l4.92,11.86h5.17l-18.87-44.11ZM2891.81,2848.78l7.2-16.85,7.07,16.85h-14.27Z" />
    <polygon points="2974.27 2865.06 2974.27 2846.95 2960.45 2822.97 2965.87 2822.97 2976.6 2841.78 2987.46 2822.97 2992.88 2822.97 2978.94 2846.95 2978.94 2865.06 2974.27 2865.06" />
    <path d="M3054.59,2820.95l-19.37,44.11h5.17l5.05-11.86h17.93l4.92,11.86h5.17l-18.87-44.11ZM3047.27,2848.78l7.2-16.85,7.06,16.85h-14.26Z" />
  </g>
</svg>